<?xml version="1.0" standalone="no"?>
<!DOCTYPE svg PUBLIC "-//W3C//DTD SVG 20010904//EN"
 "http://www.w3.org/TR/2001/REC-SVG-20010904/DTD/svg10.dtd">
<svg version="1.0" xmlns="http://www.w3.org/2000/svg"
 width="1024.000000pt" height="1024.000000pt" viewBox="0 0 1024.000000 1024.000000"
 preserveAspectRatio="xMidYMid meet">
<metadata>
Created by potrace 1.15, written by Peter Selinger 2001-2017
</metadata>
<g transform="translate(0.000000,1024.000000) scale(0.100000,-0.100000)"
fill="#000000" stroke="none">
<path d="M3695 5424 c-600 -1549 -1093 -2820 -1096 -2825 -3 -5 -106 -23 -230
-40 -123 -16 -227 -34 -232 -38 -4 -4 -6 -126 -5 -272 l3 -264 895 0 895 0 3
264 c1 146 -1 268 -5 272 -5 4 -109 25 -232 46 -123 21 -225 43 -228 48 -2 6
90 265 205 575 l209 565 1254 2 1254 3 203 -571 c112 -314 200 -574 195 -578
-4 -4 -110 -25 -236 -46 l-227 -38 2 -271 3 -271 895 0 895 0 3 271 2 271
-202 27 c-112 15 -216 31 -232 35 -28 7 -52 67 -1101 2826 l-1072 2820 -364 3
-364 2 -1090 -2816z m1944 390 c265 -735 481 -1338 478 -1340 -2 -2 -447 -3
-989 -2 l-985 3 491 1337 c364 992 495 1338 507 1338 11 0 135 -332 498 -1336z"/>
</g>
</svg>
